<mxfile host="app.diagrams.net" modified="2024-09-22T02:45:21.914Z" agent="Mozilla/5.0 (X11; Linux x86_64) AppleWebKit/537.36 (KHTML, like Gecko) Chrome/129.0.0.0 Safari/537.36" etag="7Mqqf2VC_m1oVGC7p0in" version="24.6.5" type="device" pages="5">
  <diagram name="template" id="TWR2EtSC7kXhwTfsg7ZK">
    <mxGraphModel dx="996" dy="1187" grid="0" gridSize="10" guides="1" tooltips="1" connect="1" arrows="1" fold="1" page="0" pageScale="1" pageWidth="827" pageHeight="1169" math="0" shadow="0">
      <root>
        <mxCell id="24fornzDPuDs3DAg7Gyd-0" />
        <mxCell id="24fornzDPuDs3DAg7Gyd-1" parent="24fornzDPuDs3DAg7Gyd-0" />
        <mxCell id="24fornzDPuDs3DAg7Gyd-2" value="" style="rounded=0;whiteSpace=wrap;html=1;" vertex="1" parent="24fornzDPuDs3DAg7Gyd-1">
          <mxGeometry x="77" y="-60" width="116" height="314" as="geometry" />
        </mxCell>
        <mxCell id="24fornzDPuDs3DAg7Gyd-3" value="P7" style="text;html=1;align=center;verticalAlign=middle;whiteSpace=wrap;rounded=0;fontSize=16;" vertex="1" parent="24fornzDPuDs3DAg7Gyd-1">
          <mxGeometry x="66" y="222" width="60" height="30" as="geometry" />
        </mxCell>
        <mxCell id="24fornzDPuDs3DAg7Gyd-4" value="" style="endArrow=classic;html=1;rounded=0;fontSize=12;startSize=8;endSize=8;curved=1;entryX=0;entryY=0.5;entryDx=0;entryDy=0;" edge="1" parent="24fornzDPuDs3DAg7Gyd-1" target="24fornzDPuDs3DAg7Gyd-3">
          <mxGeometry width="50" height="50" relative="1" as="geometry">
            <mxPoint x="-44" y="237" as="sourcePoint" />
            <mxPoint x="225" y="175" as="targetPoint" />
          </mxGeometry>
        </mxCell>
        <mxCell id="24fornzDPuDs3DAg7Gyd-5" value="GND" style="text;html=1;align=center;verticalAlign=middle;resizable=0;points=[];autosize=1;strokeColor=none;fillColor=none;fontSize=16;" vertex="1" parent="24fornzDPuDs3DAg7Gyd-1">
          <mxGeometry x="-25.5" y="207.5" width="54" height="31" as="geometry" />
        </mxCell>
        <mxCell id="24fornzDPuDs3DAg7Gyd-6" value="P14" style="text;html=1;align=center;verticalAlign=middle;resizable=0;points=[];autosize=1;strokeColor=none;fillColor=none;fontSize=16;" vertex="1" parent="24fornzDPuDs3DAg7Gyd-1">
          <mxGeometry x="147" y="-60" width="46" height="31" as="geometry" />
        </mxCell>
        <mxCell id="24fornzDPuDs3DAg7Gyd-7" value="" style="endArrow=classic;html=1;rounded=0;fontSize=12;startSize=8;endSize=8;curved=1;entryX=1;entryY=0.484;entryDx=0;entryDy=0;entryPerimeter=0;" edge="1" parent="24fornzDPuDs3DAg7Gyd-1" target="24fornzDPuDs3DAg7Gyd-6">
          <mxGeometry width="50" height="50" relative="1" as="geometry">
            <mxPoint x="302" y="-45" as="sourcePoint" />
            <mxPoint x="189" y="175" as="targetPoint" />
          </mxGeometry>
        </mxCell>
        <mxCell id="24fornzDPuDs3DAg7Gyd-8" value="P1" style="text;html=1;align=center;verticalAlign=middle;resizable=0;points=[];autosize=1;strokeColor=none;fillColor=none;fontSize=16;" vertex="1" parent="24fornzDPuDs3DAg7Gyd-1">
          <mxGeometry x="77" y="-60" width="38" height="31" as="geometry" />
        </mxCell>
        <mxCell id="24fornzDPuDs3DAg7Gyd-9" value="P2" style="text;html=1;align=center;verticalAlign=middle;resizable=0;points=[];autosize=1;strokeColor=none;fillColor=none;fontSize=16;" vertex="1" parent="24fornzDPuDs3DAg7Gyd-1">
          <mxGeometry x="77" y="-12" width="38" height="31" as="geometry" />
        </mxCell>
        <mxCell id="24fornzDPuDs3DAg7Gyd-10" value="P3" style="text;html=1;align=center;verticalAlign=middle;resizable=0;points=[];autosize=1;strokeColor=none;fillColor=none;fontSize=16;" vertex="1" parent="24fornzDPuDs3DAg7Gyd-1">
          <mxGeometry x="77" y="37" width="38" height="31" as="geometry" />
        </mxCell>
        <mxCell id="24fornzDPuDs3DAg7Gyd-11" value="P8" style="text;html=1;align=center;verticalAlign=middle;resizable=0;points=[];autosize=1;strokeColor=none;fillColor=none;fontSize=16;" vertex="1" parent="24fornzDPuDs3DAg7Gyd-1">
          <mxGeometry x="155" y="222" width="38" height="31" as="geometry" />
        </mxCell>
        <mxCell id="24fornzDPuDs3DAg7Gyd-12" value="P9" style="text;html=1;align=center;verticalAlign=middle;resizable=0;points=[];autosize=1;strokeColor=none;fillColor=none;fontSize=16;" vertex="1" parent="24fornzDPuDs3DAg7Gyd-1">
          <mxGeometry x="151" y="180" width="38" height="31" as="geometry" />
        </mxCell>
        <mxCell id="24fornzDPuDs3DAg7Gyd-13" value="P10" style="text;html=1;align=center;verticalAlign=middle;resizable=0;points=[];autosize=1;strokeColor=none;fillColor=none;fontSize=16;" vertex="1" parent="24fornzDPuDs3DAg7Gyd-1">
          <mxGeometry x="147" y="134" width="46" height="31" as="geometry" />
        </mxCell>
        <mxCell id="24fornzDPuDs3DAg7Gyd-14" value="P6" style="text;html=1;align=center;verticalAlign=middle;resizable=0;points=[];autosize=1;strokeColor=none;fillColor=none;fontSize=16;" vertex="1" parent="24fornzDPuDs3DAg7Gyd-1">
          <mxGeometry x="77" y="180" width="38" height="31" as="geometry" />
        </mxCell>
        <mxCell id="24fornzDPuDs3DAg7Gyd-15" value="P5" style="text;html=1;align=center;verticalAlign=middle;resizable=0;points=[];autosize=1;strokeColor=none;fillColor=none;fontSize=16;" vertex="1" parent="24fornzDPuDs3DAg7Gyd-1">
          <mxGeometry x="77" y="134" width="38" height="31" as="geometry" />
        </mxCell>
        <mxCell id="24fornzDPuDs3DAg7Gyd-16" value="P4" style="text;html=1;align=center;verticalAlign=middle;resizable=0;points=[];autosize=1;strokeColor=none;fillColor=none;fontSize=16;" vertex="1" parent="24fornzDPuDs3DAg7Gyd-1">
          <mxGeometry x="77" y="86" width="38" height="31" as="geometry" />
        </mxCell>
      </root>
    </mxGraphModel>
  </diagram>
  <diagram name="andnand" id="nSOKF92dJqe_cvTKDRdM">
    <mxGraphModel dx="996" dy="1187" grid="0" gridSize="10" guides="1" tooltips="1" connect="1" arrows="1" fold="1" page="0" pageScale="1" pageWidth="827" pageHeight="1169" math="0" shadow="0">
      <root>
        <mxCell id="MxnjtXKbXYck7bz-nxF8-0" />
        <mxCell id="MxnjtXKbXYck7bz-nxF8-1" parent="MxnjtXKbXYck7bz-nxF8-0" />
        <mxCell id="MxnjtXKbXYck7bz-nxF8-2" value="" style="rounded=0;whiteSpace=wrap;html=1;" vertex="1" parent="MxnjtXKbXYck7bz-nxF8-1">
          <mxGeometry x="77" y="-60" width="116" height="314" as="geometry" />
        </mxCell>
        <mxCell id="MxnjtXKbXYck7bz-nxF8-3" value="P7" style="text;html=1;align=center;verticalAlign=middle;whiteSpace=wrap;rounded=0;fontSize=16;" vertex="1" parent="MxnjtXKbXYck7bz-nxF8-1">
          <mxGeometry x="66" y="222" width="60" height="30" as="geometry" />
        </mxCell>
        <mxCell id="MxnjtXKbXYck7bz-nxF8-4" value="" style="endArrow=classic;html=1;rounded=0;fontSize=12;startSize=8;endSize=8;curved=1;entryX=0;entryY=0.5;entryDx=0;entryDy=0;" edge="1" parent="MxnjtXKbXYck7bz-nxF8-1" target="MxnjtXKbXYck7bz-nxF8-3">
          <mxGeometry width="50" height="50" relative="1" as="geometry">
            <mxPoint x="-44" y="237" as="sourcePoint" />
            <mxPoint x="225" y="175" as="targetPoint" />
          </mxGeometry>
        </mxCell>
        <mxCell id="MxnjtXKbXYck7bz-nxF8-5" value="GND" style="text;html=1;align=center;verticalAlign=middle;resizable=0;points=[];autosize=1;strokeColor=none;fillColor=none;fontSize=16;" vertex="1" parent="MxnjtXKbXYck7bz-nxF8-1">
          <mxGeometry x="-25.5" y="207.5" width="54" height="31" as="geometry" />
        </mxCell>
        <mxCell id="MxnjtXKbXYck7bz-nxF8-6" value="P14" style="text;html=1;align=center;verticalAlign=middle;resizable=0;points=[];autosize=1;strokeColor=none;fillColor=none;fontSize=16;" vertex="1" parent="MxnjtXKbXYck7bz-nxF8-1">
          <mxGeometry x="147" y="-60" width="46" height="31" as="geometry" />
        </mxCell>
        <mxCell id="MxnjtXKbXYck7bz-nxF8-7" value="" style="endArrow=classic;html=1;rounded=0;fontSize=12;startSize=8;endSize=8;curved=1;entryX=1;entryY=0.484;entryDx=0;entryDy=0;entryPerimeter=0;" edge="1" parent="MxnjtXKbXYck7bz-nxF8-1" target="MxnjtXKbXYck7bz-nxF8-6">
          <mxGeometry width="50" height="50" relative="1" as="geometry">
            <mxPoint x="302" y="-45" as="sourcePoint" />
            <mxPoint x="189" y="175" as="targetPoint" />
          </mxGeometry>
        </mxCell>
        <mxCell id="MxnjtXKbXYck7bz-nxF8-8" value="P1" style="text;html=1;align=center;verticalAlign=middle;resizable=0;points=[];autosize=1;strokeColor=none;fillColor=none;fontSize=16;" vertex="1" parent="MxnjtXKbXYck7bz-nxF8-1">
          <mxGeometry x="77" y="-60" width="38" height="31" as="geometry" />
        </mxCell>
        <mxCell id="MxnjtXKbXYck7bz-nxF8-9" value="P2" style="text;html=1;align=center;verticalAlign=middle;resizable=0;points=[];autosize=1;strokeColor=none;fillColor=none;fontSize=16;" vertex="1" parent="MxnjtXKbXYck7bz-nxF8-1">
          <mxGeometry x="77" y="-12" width="38" height="31" as="geometry" />
        </mxCell>
        <mxCell id="MxnjtXKbXYck7bz-nxF8-10" value="P3" style="text;html=1;align=center;verticalAlign=middle;resizable=0;points=[];autosize=1;strokeColor=none;fillColor=none;fontSize=16;" vertex="1" parent="MxnjtXKbXYck7bz-nxF8-1">
          <mxGeometry x="77" y="37" width="38" height="31" as="geometry" />
        </mxCell>
        <mxCell id="MxnjtXKbXYck7bz-nxF8-11" value="P8" style="text;html=1;align=center;verticalAlign=middle;resizable=0;points=[];autosize=1;strokeColor=none;fillColor=none;fontSize=16;" vertex="1" parent="MxnjtXKbXYck7bz-nxF8-1">
          <mxGeometry x="155" y="222" width="38" height="31" as="geometry" />
        </mxCell>
        <mxCell id="MxnjtXKbXYck7bz-nxF8-12" value="P9" style="text;html=1;align=center;verticalAlign=middle;resizable=0;points=[];autosize=1;strokeColor=none;fillColor=none;fontSize=16;" vertex="1" parent="MxnjtXKbXYck7bz-nxF8-1">
          <mxGeometry x="151" y="180" width="38" height="31" as="geometry" />
        </mxCell>
        <mxCell id="MxnjtXKbXYck7bz-nxF8-13" value="P10" style="text;html=1;align=center;verticalAlign=middle;resizable=0;points=[];autosize=1;strokeColor=none;fillColor=none;fontSize=16;" vertex="1" parent="MxnjtXKbXYck7bz-nxF8-1">
          <mxGeometry x="147" y="134" width="46" height="31" as="geometry" />
        </mxCell>
        <mxCell id="MxnjtXKbXYck7bz-nxF8-14" value="P6" style="text;html=1;align=center;verticalAlign=middle;resizable=0;points=[];autosize=1;strokeColor=none;fillColor=none;fontSize=16;" vertex="1" parent="MxnjtXKbXYck7bz-nxF8-1">
          <mxGeometry x="77" y="180" width="38" height="31" as="geometry" />
        </mxCell>
        <mxCell id="MxnjtXKbXYck7bz-nxF8-15" value="P5" style="text;html=1;align=center;verticalAlign=middle;resizable=0;points=[];autosize=1;strokeColor=none;fillColor=none;fontSize=16;" vertex="1" parent="MxnjtXKbXYck7bz-nxF8-1">
          <mxGeometry x="77" y="134" width="38" height="31" as="geometry" />
        </mxCell>
        <mxCell id="MxnjtXKbXYck7bz-nxF8-16" value="P4" style="text;html=1;align=center;verticalAlign=middle;resizable=0;points=[];autosize=1;strokeColor=none;fillColor=none;fontSize=16;" vertex="1" parent="MxnjtXKbXYck7bz-nxF8-1">
          <mxGeometry x="77" y="86" width="38" height="31" as="geometry" />
        </mxCell>
        <mxCell id="SEZ3i-JvCshfZGHysvv7-0" value="" style="endArrow=classic;html=1;rounded=0;fontSize=12;startSize=8;endSize=8;curved=1;entryX=-0.053;entryY=0.516;entryDx=0;entryDy=0;entryPerimeter=0;" edge="1" parent="MxnjtXKbXYck7bz-nxF8-1" target="MxnjtXKbXYck7bz-nxF8-8">
          <mxGeometry width="50" height="50" relative="1" as="geometry">
            <mxPoint x="-54" y="-44" as="sourcePoint" />
            <mxPoint x="180" y="217" as="targetPoint" />
          </mxGeometry>
        </mxCell>
        <mxCell id="SEZ3i-JvCshfZGHysvv7-1" value="SW_1" style="text;html=1;align=center;verticalAlign=middle;resizable=0;points=[];autosize=1;strokeColor=none;fillColor=none;fontSize=16;" vertex="1" parent="MxnjtXKbXYck7bz-nxF8-1">
          <mxGeometry x="-22" y="-78" width="62" height="31" as="geometry" />
        </mxCell>
        <mxCell id="SEZ3i-JvCshfZGHysvv7-2" value="" style="endArrow=classic;html=1;rounded=0;fontSize=12;startSize=8;endSize=8;curved=1;entryX=-0.053;entryY=0.516;entryDx=0;entryDy=0;entryPerimeter=0;" edge="1" parent="MxnjtXKbXYck7bz-nxF8-1" target="MxnjtXKbXYck7bz-nxF8-9">
          <mxGeometry width="50" height="50" relative="1" as="geometry">
            <mxPoint x="-52" y="4" as="sourcePoint" />
            <mxPoint x="180" y="217" as="targetPoint" />
          </mxGeometry>
        </mxCell>
        <mxCell id="SEZ3i-JvCshfZGHysvv7-3" value="SW_2, A" style="text;html=1;align=center;verticalAlign=middle;resizable=0;points=[];autosize=1;strokeColor=none;fillColor=none;fontSize=16;" vertex="1" parent="MxnjtXKbXYck7bz-nxF8-1">
          <mxGeometry x="-27" y="-26" width="80" height="31" as="geometry" />
        </mxCell>
        <mxCell id="SEZ3i-JvCshfZGHysvv7-4" value="" style="endArrow=classic;html=1;rounded=0;fontSize=12;startSize=8;endSize=8;curved=1;exitX=-0.026;exitY=0.516;exitDx=0;exitDy=0;exitPerimeter=0;" edge="1" parent="MxnjtXKbXYck7bz-nxF8-1" source="MxnjtXKbXYck7bz-nxF8-10">
          <mxGeometry width="50" height="50" relative="1" as="geometry">
            <mxPoint x="130" y="267" as="sourcePoint" />
            <mxPoint x="-51" y="53" as="targetPoint" />
          </mxGeometry>
        </mxCell>
        <mxCell id="SEZ3i-JvCshfZGHysvv7-5" value="B" style="text;html=1;align=center;verticalAlign=middle;resizable=0;points=[];autosize=1;strokeColor=none;fillColor=none;fontSize=16;" vertex="1" parent="MxnjtXKbXYck7bz-nxF8-1">
          <mxGeometry x="-5.5" y="24" width="29" height="31" as="geometry" />
        </mxCell>
        <mxCell id="SEZ3i-JvCshfZGHysvv7-6" value="" style="endArrow=classic;html=1;rounded=0;fontSize=12;startSize=8;endSize=8;curved=1;entryX=-0.026;entryY=0.613;entryDx=0;entryDy=0;entryPerimeter=0;" edge="1" parent="MxnjtXKbXYck7bz-nxF8-1" target="MxnjtXKbXYck7bz-nxF8-16">
          <mxGeometry width="50" height="50" relative="1" as="geometry">
            <mxPoint x="-49" y="104" as="sourcePoint" />
            <mxPoint x="180" y="217" as="targetPoint" />
          </mxGeometry>
        </mxCell>
        <mxCell id="SEZ3i-JvCshfZGHysvv7-7" value="" style="endArrow=classic;html=1;rounded=0;fontSize=12;startSize=8;endSize=8;curved=1;entryX=-0.026;entryY=0.613;entryDx=0;entryDy=0;entryPerimeter=0;" edge="1" parent="MxnjtXKbXYck7bz-nxF8-1">
          <mxGeometry width="50" height="50" relative="1" as="geometry">
            <mxPoint x="-49.5" y="149" as="sourcePoint" />
            <mxPoint x="75.5" y="150" as="targetPoint" />
          </mxGeometry>
        </mxCell>
        <mxCell id="SEZ3i-JvCshfZGHysvv7-8" value="A" style="text;html=1;align=center;verticalAlign=middle;resizable=0;points=[];autosize=1;strokeColor=none;fillColor=none;fontSize=16;" vertex="1" parent="MxnjtXKbXYck7bz-nxF8-1">
          <mxGeometry x="-1.5" y="74" width="29" height="31" as="geometry" />
        </mxCell>
        <mxCell id="SEZ3i-JvCshfZGHysvv7-9" value="B" style="text;html=1;align=center;verticalAlign=middle;resizable=0;points=[];autosize=1;strokeColor=none;fillColor=none;fontSize=16;" vertex="1" parent="MxnjtXKbXYck7bz-nxF8-1">
          <mxGeometry x="-1.5" y="122" width="29" height="31" as="geometry" />
        </mxCell>
        <mxCell id="SEZ3i-JvCshfZGHysvv7-10" value="" style="endArrow=classic;html=1;rounded=0;fontSize=12;startSize=8;endSize=8;curved=1;" edge="1" parent="MxnjtXKbXYck7bz-nxF8-1">
          <mxGeometry width="50" height="50" relative="1" as="geometry">
            <mxPoint x="76" y="193" as="sourcePoint" />
            <mxPoint x="-121" y="193" as="targetPoint" />
          </mxGeometry>
        </mxCell>
        <mxCell id="SEZ3i-JvCshfZGHysvv7-11" value="C" style="text;html=1;align=center;verticalAlign=middle;resizable=0;points=[];autosize=1;strokeColor=none;fillColor=none;fontSize=16;" vertex="1" parent="MxnjtXKbXYck7bz-nxF8-1">
          <mxGeometry x="-9" y="165" width="30" height="31" as="geometry" />
        </mxCell>
        <mxCell id="SEZ3i-JvCshfZGHysvv7-12" value="" style="endArrow=classic;html=1;rounded=0;fontSize=12;startSize=8;endSize=8;curved=1;" edge="1" parent="MxnjtXKbXYck7bz-nxF8-1">
          <mxGeometry width="50" height="50" relative="1" as="geometry">
            <mxPoint x="-76" y="193" as="sourcePoint" />
            <mxPoint x="-78" y="440" as="targetPoint" />
          </mxGeometry>
        </mxCell>
        <mxCell id="SEZ3i-JvCshfZGHysvv7-13" value="LED" style="text;html=1;align=center;verticalAlign=middle;resizable=0;points=[];autosize=1;strokeColor=none;fillColor=none;fontSize=16;" vertex="1" parent="MxnjtXKbXYck7bz-nxF8-1">
          <mxGeometry x="-78.5" y="303.5" width="49" height="31" as="geometry" />
        </mxCell>
        <mxCell id="SEZ3i-JvCshfZGHysvv7-14" value="VCC" style="text;html=1;align=center;verticalAlign=middle;resizable=0;points=[];autosize=1;strokeColor=none;fillColor=none;fontSize=16;" vertex="1" parent="MxnjtXKbXYck7bz-nxF8-1">
          <mxGeometry x="226" y="-78" width="52" height="31" as="geometry" />
        </mxCell>
      </root>
    </mxGraphModel>
  </diagram>
  <diagram name="andnor" id="542Bz5Lay4rifoW5NhqM">
    <mxGraphModel dx="996" dy="1187" grid="0" gridSize="10" guides="1" tooltips="1" connect="1" arrows="1" fold="1" page="0" pageScale="1" pageWidth="827" pageHeight="1169" math="0" shadow="0">
      <root>
        <mxCell id="FErbM7QuUEibT0pJZx7M-0" />
        <mxCell id="FErbM7QuUEibT0pJZx7M-1" parent="FErbM7QuUEibT0pJZx7M-0" />
        <mxCell id="FErbM7QuUEibT0pJZx7M-2" value="" style="rounded=0;whiteSpace=wrap;html=1;" vertex="1" parent="FErbM7QuUEibT0pJZx7M-1">
          <mxGeometry x="77" y="-60" width="116" height="314" as="geometry" />
        </mxCell>
        <mxCell id="FErbM7QuUEibT0pJZx7M-3" value="P7" style="text;html=1;align=center;verticalAlign=middle;whiteSpace=wrap;rounded=0;fontSize=16;" vertex="1" parent="FErbM7QuUEibT0pJZx7M-1">
          <mxGeometry x="66" y="222" width="60" height="30" as="geometry" />
        </mxCell>
        <mxCell id="FErbM7QuUEibT0pJZx7M-4" value="" style="endArrow=classic;html=1;rounded=0;fontSize=12;startSize=8;endSize=8;curved=1;entryX=0;entryY=0.5;entryDx=0;entryDy=0;" edge="1" parent="FErbM7QuUEibT0pJZx7M-1" target="FErbM7QuUEibT0pJZx7M-3">
          <mxGeometry width="50" height="50" relative="1" as="geometry">
            <mxPoint x="-44" y="237" as="sourcePoint" />
            <mxPoint x="225" y="175" as="targetPoint" />
          </mxGeometry>
        </mxCell>
        <mxCell id="FErbM7QuUEibT0pJZx7M-5" value="GND" style="text;html=1;align=center;verticalAlign=middle;resizable=0;points=[];autosize=1;strokeColor=none;fillColor=none;fontSize=16;" vertex="1" parent="FErbM7QuUEibT0pJZx7M-1">
          <mxGeometry x="-25.5" y="207.5" width="54" height="31" as="geometry" />
        </mxCell>
        <mxCell id="FErbM7QuUEibT0pJZx7M-6" value="P14" style="text;html=1;align=center;verticalAlign=middle;resizable=0;points=[];autosize=1;strokeColor=none;fillColor=none;fontSize=16;" vertex="1" parent="FErbM7QuUEibT0pJZx7M-1">
          <mxGeometry x="147" y="-60" width="46" height="31" as="geometry" />
        </mxCell>
        <mxCell id="FErbM7QuUEibT0pJZx7M-7" value="" style="endArrow=classic;html=1;rounded=0;fontSize=12;startSize=8;endSize=8;curved=1;entryX=1;entryY=0.484;entryDx=0;entryDy=0;entryPerimeter=0;" edge="1" parent="FErbM7QuUEibT0pJZx7M-1" target="FErbM7QuUEibT0pJZx7M-6">
          <mxGeometry width="50" height="50" relative="1" as="geometry">
            <mxPoint x="302" y="-45" as="sourcePoint" />
            <mxPoint x="189" y="175" as="targetPoint" />
          </mxGeometry>
        </mxCell>
        <mxCell id="FErbM7QuUEibT0pJZx7M-8" value="P1" style="text;html=1;align=center;verticalAlign=middle;resizable=0;points=[];autosize=1;strokeColor=none;fillColor=none;fontSize=16;" vertex="1" parent="FErbM7QuUEibT0pJZx7M-1">
          <mxGeometry x="77" y="-60" width="38" height="31" as="geometry" />
        </mxCell>
        <mxCell id="FErbM7QuUEibT0pJZx7M-9" value="P2" style="text;html=1;align=center;verticalAlign=middle;resizable=0;points=[];autosize=1;strokeColor=none;fillColor=none;fontSize=16;" vertex="1" parent="FErbM7QuUEibT0pJZx7M-1">
          <mxGeometry x="77" y="-12" width="38" height="31" as="geometry" />
        </mxCell>
        <mxCell id="FErbM7QuUEibT0pJZx7M-10" value="P3" style="text;html=1;align=center;verticalAlign=middle;resizable=0;points=[];autosize=1;strokeColor=none;fillColor=none;fontSize=16;" vertex="1" parent="FErbM7QuUEibT0pJZx7M-1">
          <mxGeometry x="77" y="37" width="38" height="31" as="geometry" />
        </mxCell>
        <mxCell id="FErbM7QuUEibT0pJZx7M-11" value="P8" style="text;html=1;align=center;verticalAlign=middle;resizable=0;points=[];autosize=1;strokeColor=none;fillColor=none;fontSize=16;" vertex="1" parent="FErbM7QuUEibT0pJZx7M-1">
          <mxGeometry x="155" y="222" width="38" height="31" as="geometry" />
        </mxCell>
        <mxCell id="FErbM7QuUEibT0pJZx7M-12" value="P9" style="text;html=1;align=center;verticalAlign=middle;resizable=0;points=[];autosize=1;strokeColor=none;fillColor=none;fontSize=16;" vertex="1" parent="FErbM7QuUEibT0pJZx7M-1">
          <mxGeometry x="151" y="180" width="38" height="31" as="geometry" />
        </mxCell>
        <mxCell id="FErbM7QuUEibT0pJZx7M-13" value="P10" style="text;html=1;align=center;verticalAlign=middle;resizable=0;points=[];autosize=1;strokeColor=none;fillColor=none;fontSize=16;" vertex="1" parent="FErbM7QuUEibT0pJZx7M-1">
          <mxGeometry x="147" y="134" width="46" height="31" as="geometry" />
        </mxCell>
        <mxCell id="FErbM7QuUEibT0pJZx7M-14" value="P6" style="text;html=1;align=center;verticalAlign=middle;resizable=0;points=[];autosize=1;strokeColor=none;fillColor=none;fontSize=16;" vertex="1" parent="FErbM7QuUEibT0pJZx7M-1">
          <mxGeometry x="77" y="180" width="38" height="31" as="geometry" />
        </mxCell>
        <mxCell id="FErbM7QuUEibT0pJZx7M-15" value="P5" style="text;html=1;align=center;verticalAlign=middle;resizable=0;points=[];autosize=1;strokeColor=none;fillColor=none;fontSize=16;" vertex="1" parent="FErbM7QuUEibT0pJZx7M-1">
          <mxGeometry x="77" y="134" width="38" height="31" as="geometry" />
        </mxCell>
        <mxCell id="FErbM7QuUEibT0pJZx7M-16" value="P4" style="text;html=1;align=center;verticalAlign=middle;resizable=0;points=[];autosize=1;strokeColor=none;fillColor=none;fontSize=16;" vertex="1" parent="FErbM7QuUEibT0pJZx7M-1">
          <mxGeometry x="77" y="86" width="38" height="31" as="geometry" />
        </mxCell>
        <mxCell id="FErbM7QuUEibT0pJZx7M-17" value="" style="endArrow=classic;html=1;rounded=0;fontSize=12;startSize=8;endSize=8;curved=1;entryX=-0.053;entryY=0.516;entryDx=0;entryDy=0;entryPerimeter=0;" edge="1" parent="FErbM7QuUEibT0pJZx7M-1" target="FErbM7QuUEibT0pJZx7M-8">
          <mxGeometry width="50" height="50" relative="1" as="geometry">
            <mxPoint x="-54" y="-44" as="sourcePoint" />
            <mxPoint x="180" y="217" as="targetPoint" />
          </mxGeometry>
        </mxCell>
        <mxCell id="FErbM7QuUEibT0pJZx7M-19" value="" style="endArrow=classic;html=1;rounded=0;fontSize=12;startSize=8;endSize=8;curved=1;entryX=-0.053;entryY=0.516;entryDx=0;entryDy=0;entryPerimeter=0;" edge="1" parent="FErbM7QuUEibT0pJZx7M-1" target="FErbM7QuUEibT0pJZx7M-9">
          <mxGeometry width="50" height="50" relative="1" as="geometry">
            <mxPoint x="-52" y="4" as="sourcePoint" />
            <mxPoint x="180" y="217" as="targetPoint" />
          </mxGeometry>
        </mxCell>
        <mxCell id="FErbM7QuUEibT0pJZx7M-21" value="" style="endArrow=classic;html=1;rounded=0;fontSize=12;startSize=8;endSize=8;curved=1;exitX=-0.026;exitY=0.516;exitDx=0;exitDy=0;exitPerimeter=0;" edge="1" parent="FErbM7QuUEibT0pJZx7M-1" source="FErbM7QuUEibT0pJZx7M-10">
          <mxGeometry width="50" height="50" relative="1" as="geometry">
            <mxPoint x="130" y="267" as="sourcePoint" />
            <mxPoint x="-51" y="53" as="targetPoint" />
          </mxGeometry>
        </mxCell>
        <mxCell id="FErbM7QuUEibT0pJZx7M-23" value="" style="endArrow=classic;html=1;rounded=0;fontSize=12;startSize=8;endSize=8;curved=1;entryX=-0.026;entryY=0.613;entryDx=0;entryDy=0;entryPerimeter=0;" edge="1" parent="FErbM7QuUEibT0pJZx7M-1" target="FErbM7QuUEibT0pJZx7M-16">
          <mxGeometry width="50" height="50" relative="1" as="geometry">
            <mxPoint x="-49" y="104" as="sourcePoint" />
            <mxPoint x="180" y="217" as="targetPoint" />
          </mxGeometry>
        </mxCell>
        <mxCell id="FErbM7QuUEibT0pJZx7M-24" value="" style="endArrow=classic;html=1;rounded=0;fontSize=12;startSize=8;endSize=8;curved=1;entryX=-0.026;entryY=0.613;entryDx=0;entryDy=0;entryPerimeter=0;" edge="1" parent="FErbM7QuUEibT0pJZx7M-1">
          <mxGeometry width="50" height="50" relative="1" as="geometry">
            <mxPoint x="-49.5" y="149" as="sourcePoint" />
            <mxPoint x="75.5" y="150" as="targetPoint" />
          </mxGeometry>
        </mxCell>
        <mxCell id="FErbM7QuUEibT0pJZx7M-31" value="VCC" style="text;html=1;align=center;verticalAlign=middle;resizable=0;points=[];autosize=1;strokeColor=none;fillColor=none;fontSize=16;" vertex="1" parent="FErbM7QuUEibT0pJZx7M-1">
          <mxGeometry x="226" y="-78" width="52" height="31" as="geometry" />
        </mxCell>
        <mxCell id="EAN70Ju0qR8q9GA3CnG4-0" value="" style="endArrow=classic;html=1;rounded=0;fontSize=12;startSize=8;endSize=8;curved=1;exitX=-0.026;exitY=0.516;exitDx=0;exitDy=0;exitPerimeter=0;" edge="1" parent="FErbM7QuUEibT0pJZx7M-1">
          <mxGeometry width="50" height="50" relative="1" as="geometry">
            <mxPoint x="77" y="197" as="sourcePoint" />
            <mxPoint x="-50" y="197" as="targetPoint" />
          </mxGeometry>
        </mxCell>
        <mxCell id="AzbSWvUpYSfJ90PeXyQz-0" value="SW_1, A" style="text;html=1;align=center;verticalAlign=middle;resizable=0;points=[];autosize=1;strokeColor=none;fillColor=none;fontSize=16;" vertex="1" parent="FErbM7QuUEibT0pJZx7M-1">
          <mxGeometry x="-30" y="-78" width="80" height="31" as="geometry" />
        </mxCell>
        <mxCell id="AzbSWvUpYSfJ90PeXyQz-1" value="SW_2, C" style="text;html=1;align=center;verticalAlign=middle;resizable=0;points=[];autosize=1;strokeColor=none;fillColor=none;fontSize=16;" vertex="1" parent="FErbM7QuUEibT0pJZx7M-1">
          <mxGeometry x="-28" y="72" width="82" height="31" as="geometry" />
        </mxCell>
        <mxCell id="AzbSWvUpYSfJ90PeXyQz-2" value="A" style="text;html=1;align=center;verticalAlign=middle;resizable=0;points=[];autosize=1;strokeColor=none;fillColor=none;fontSize=16;" vertex="1" parent="FErbM7QuUEibT0pJZx7M-1">
          <mxGeometry x="-6.5" y="-26.5" width="29" height="31" as="geometry" />
        </mxCell>
        <mxCell id="AzbSWvUpYSfJ90PeXyQz-3" value="B" style="text;html=1;align=center;verticalAlign=middle;resizable=0;points=[];autosize=1;strokeColor=none;fillColor=none;fontSize=16;" vertex="1" parent="FErbM7QuUEibT0pJZx7M-1">
          <mxGeometry x="-1.5" y="23" width="29" height="31" as="geometry" />
        </mxCell>
        <mxCell id="AzbSWvUpYSfJ90PeXyQz-4" value="C" style="text;html=1;align=center;verticalAlign=middle;resizable=0;points=[];autosize=1;strokeColor=none;fillColor=none;fontSize=16;" vertex="1" parent="FErbM7QuUEibT0pJZx7M-1">
          <mxGeometry x="-13.5" y="122.5" width="30" height="31" as="geometry" />
        </mxCell>
        <mxCell id="AzbSWvUpYSfJ90PeXyQz-5" value="D" style="text;html=1;align=center;verticalAlign=middle;resizable=0;points=[];autosize=1;strokeColor=none;fillColor=none;fontSize=16;" vertex="1" parent="FErbM7QuUEibT0pJZx7M-1">
          <mxGeometry x="-4.5" y="170.5" width="30" height="31" as="geometry" />
        </mxCell>
        <mxCell id="AzbSWvUpYSfJ90PeXyQz-6" value="" style="endArrow=classic;html=1;rounded=0;fontSize=12;startSize=8;endSize=8;curved=1;" edge="1" parent="FErbM7QuUEibT0pJZx7M-1">
          <mxGeometry width="50" height="50" relative="1" as="geometry">
            <mxPoint x="193" y="149" as="sourcePoint" />
            <mxPoint x="389" y="150" as="targetPoint" />
          </mxGeometry>
        </mxCell>
        <mxCell id="AzbSWvUpYSfJ90PeXyQz-7" value="" style="endArrow=classic;html=1;rounded=0;fontSize=12;startSize=8;endSize=8;curved=1;exitX=-0.026;exitY=0.516;exitDx=0;exitDy=0;exitPerimeter=0;" edge="1" parent="FErbM7QuUEibT0pJZx7M-1">
          <mxGeometry width="50" height="50" relative="1" as="geometry">
            <mxPoint x="320" y="195" as="sourcePoint" />
            <mxPoint x="193" y="195" as="targetPoint" />
          </mxGeometry>
        </mxCell>
        <mxCell id="AzbSWvUpYSfJ90PeXyQz-8" value="" style="endArrow=classic;html=1;rounded=0;fontSize=12;startSize=8;endSize=8;curved=1;exitX=-0.026;exitY=0.516;exitDx=0;exitDy=0;exitPerimeter=0;" edge="1" parent="FErbM7QuUEibT0pJZx7M-1">
          <mxGeometry width="50" height="50" relative="1" as="geometry">
            <mxPoint x="320" y="241" as="sourcePoint" />
            <mxPoint x="193" y="241" as="targetPoint" />
          </mxGeometry>
        </mxCell>
        <mxCell id="AzbSWvUpYSfJ90PeXyQz-9" value="D" style="text;html=1;align=center;verticalAlign=middle;resizable=0;points=[];autosize=1;strokeColor=none;fillColor=none;fontSize=16;" vertex="1" parent="FErbM7QuUEibT0pJZx7M-1">
          <mxGeometry x="236.5" y="205.5" width="30" height="31" as="geometry" />
        </mxCell>
        <mxCell id="AzbSWvUpYSfJ90PeXyQz-10" value="C" style="text;html=1;align=center;verticalAlign=middle;resizable=0;points=[];autosize=1;strokeColor=none;fillColor=none;fontSize=16;" vertex="1" parent="FErbM7QuUEibT0pJZx7M-1">
          <mxGeometry x="231.5" y="163.5" width="30" height="31" as="geometry" />
        </mxCell>
        <mxCell id="AzbSWvUpYSfJ90PeXyQz-11" value="E" style="text;html=1;align=center;verticalAlign=middle;resizable=0;points=[];autosize=1;strokeColor=none;fillColor=none;fontSize=16;" vertex="1" parent="FErbM7QuUEibT0pJZx7M-1">
          <mxGeometry x="232.5" y="122.5" width="29" height="31" as="geometry" />
        </mxCell>
        <mxCell id="AzbSWvUpYSfJ90PeXyQz-12" value="" style="endArrow=classic;html=1;rounded=0;fontSize=12;startSize=8;endSize=8;curved=1;" edge="1" parent="FErbM7QuUEibT0pJZx7M-1">
          <mxGeometry width="50" height="50" relative="1" as="geometry">
            <mxPoint x="364" y="149" as="sourcePoint" />
            <mxPoint x="358" y="376" as="targetPoint" />
          </mxGeometry>
        </mxCell>
        <mxCell id="AzbSWvUpYSfJ90PeXyQz-13" value="LED" style="text;html=1;align=center;verticalAlign=middle;resizable=0;points=[];autosize=1;strokeColor=none;fillColor=none;fontSize=16;" vertex="1" parent="FErbM7QuUEibT0pJZx7M-1">
          <mxGeometry x="302.5" y="293.5" width="49" height="31" as="geometry" />
        </mxCell>
      </root>
    </mxGraphModel>
  </diagram>
  <diagram name="ornor" id="1p1xQdGDegYgR0WFbBhR">
    <mxGraphModel dx="996" dy="1187" grid="0" gridSize="10" guides="1" tooltips="1" connect="1" arrows="1" fold="1" page="0" pageScale="1" pageWidth="827" pageHeight="1169" math="0" shadow="0">
      <root>
        <mxCell id="IbzyNu8WcRmUK6NCDAci-0" />
        <mxCell id="IbzyNu8WcRmUK6NCDAci-1" parent="IbzyNu8WcRmUK6NCDAci-0" />
        <mxCell id="IbzyNu8WcRmUK6NCDAci-2" value="" style="rounded=0;whiteSpace=wrap;html=1;" vertex="1" parent="IbzyNu8WcRmUK6NCDAci-1">
          <mxGeometry x="77" y="-60" width="116" height="314" as="geometry" />
        </mxCell>
        <mxCell id="IbzyNu8WcRmUK6NCDAci-3" value="P7" style="text;html=1;align=center;verticalAlign=middle;whiteSpace=wrap;rounded=0;fontSize=16;" vertex="1" parent="IbzyNu8WcRmUK6NCDAci-1">
          <mxGeometry x="66" y="222" width="60" height="30" as="geometry" />
        </mxCell>
        <mxCell id="IbzyNu8WcRmUK6NCDAci-4" value="" style="endArrow=classic;html=1;rounded=0;fontSize=12;startSize=8;endSize=8;curved=1;entryX=0;entryY=0.5;entryDx=0;entryDy=0;" edge="1" parent="IbzyNu8WcRmUK6NCDAci-1" target="IbzyNu8WcRmUK6NCDAci-3">
          <mxGeometry width="50" height="50" relative="1" as="geometry">
            <mxPoint x="-44" y="237" as="sourcePoint" />
            <mxPoint x="225" y="175" as="targetPoint" />
          </mxGeometry>
        </mxCell>
        <mxCell id="IbzyNu8WcRmUK6NCDAci-5" value="GND" style="text;html=1;align=center;verticalAlign=middle;resizable=0;points=[];autosize=1;strokeColor=none;fillColor=none;fontSize=16;" vertex="1" parent="IbzyNu8WcRmUK6NCDAci-1">
          <mxGeometry x="-25.5" y="207.5" width="54" height="31" as="geometry" />
        </mxCell>
        <mxCell id="IbzyNu8WcRmUK6NCDAci-6" value="P14" style="text;html=1;align=center;verticalAlign=middle;resizable=0;points=[];autosize=1;strokeColor=none;fillColor=none;fontSize=16;" vertex="1" parent="IbzyNu8WcRmUK6NCDAci-1">
          <mxGeometry x="147" y="-60" width="46" height="31" as="geometry" />
        </mxCell>
        <mxCell id="IbzyNu8WcRmUK6NCDAci-7" value="" style="endArrow=classic;html=1;rounded=0;fontSize=12;startSize=8;endSize=8;curved=1;entryX=1;entryY=0.484;entryDx=0;entryDy=0;entryPerimeter=0;" edge="1" parent="IbzyNu8WcRmUK6NCDAci-1" target="IbzyNu8WcRmUK6NCDAci-6">
          <mxGeometry width="50" height="50" relative="1" as="geometry">
            <mxPoint x="302" y="-45" as="sourcePoint" />
            <mxPoint x="189" y="175" as="targetPoint" />
          </mxGeometry>
        </mxCell>
        <mxCell id="IbzyNu8WcRmUK6NCDAci-8" value="P1" style="text;html=1;align=center;verticalAlign=middle;resizable=0;points=[];autosize=1;strokeColor=none;fillColor=none;fontSize=16;" vertex="1" parent="IbzyNu8WcRmUK6NCDAci-1">
          <mxGeometry x="77" y="-60" width="38" height="31" as="geometry" />
        </mxCell>
        <mxCell id="IbzyNu8WcRmUK6NCDAci-9" value="P2" style="text;html=1;align=center;verticalAlign=middle;resizable=0;points=[];autosize=1;strokeColor=none;fillColor=none;fontSize=16;" vertex="1" parent="IbzyNu8WcRmUK6NCDAci-1">
          <mxGeometry x="77" y="-12" width="38" height="31" as="geometry" />
        </mxCell>
        <mxCell id="IbzyNu8WcRmUK6NCDAci-10" value="P3" style="text;html=1;align=center;verticalAlign=middle;resizable=0;points=[];autosize=1;strokeColor=none;fillColor=none;fontSize=16;" vertex="1" parent="IbzyNu8WcRmUK6NCDAci-1">
          <mxGeometry x="77" y="37" width="38" height="31" as="geometry" />
        </mxCell>
        <mxCell id="IbzyNu8WcRmUK6NCDAci-11" value="P8" style="text;html=1;align=center;verticalAlign=middle;resizable=0;points=[];autosize=1;strokeColor=none;fillColor=none;fontSize=16;" vertex="1" parent="IbzyNu8WcRmUK6NCDAci-1">
          <mxGeometry x="155" y="222" width="38" height="31" as="geometry" />
        </mxCell>
        <mxCell id="IbzyNu8WcRmUK6NCDAci-12" value="P9" style="text;html=1;align=center;verticalAlign=middle;resizable=0;points=[];autosize=1;strokeColor=none;fillColor=none;fontSize=16;" vertex="1" parent="IbzyNu8WcRmUK6NCDAci-1">
          <mxGeometry x="151" y="180" width="38" height="31" as="geometry" />
        </mxCell>
        <mxCell id="IbzyNu8WcRmUK6NCDAci-13" value="P10" style="text;html=1;align=center;verticalAlign=middle;resizable=0;points=[];autosize=1;strokeColor=none;fillColor=none;fontSize=16;" vertex="1" parent="IbzyNu8WcRmUK6NCDAci-1">
          <mxGeometry x="147" y="134" width="46" height="31" as="geometry" />
        </mxCell>
        <mxCell id="IbzyNu8WcRmUK6NCDAci-14" value="P6" style="text;html=1;align=center;verticalAlign=middle;resizable=0;points=[];autosize=1;strokeColor=none;fillColor=none;fontSize=16;" vertex="1" parent="IbzyNu8WcRmUK6NCDAci-1">
          <mxGeometry x="77" y="180" width="38" height="31" as="geometry" />
        </mxCell>
        <mxCell id="IbzyNu8WcRmUK6NCDAci-15" value="P5" style="text;html=1;align=center;verticalAlign=middle;resizable=0;points=[];autosize=1;strokeColor=none;fillColor=none;fontSize=16;" vertex="1" parent="IbzyNu8WcRmUK6NCDAci-1">
          <mxGeometry x="77" y="134" width="38" height="31" as="geometry" />
        </mxCell>
        <mxCell id="IbzyNu8WcRmUK6NCDAci-16" value="P4" style="text;html=1;align=center;verticalAlign=middle;resizable=0;points=[];autosize=1;strokeColor=none;fillColor=none;fontSize=16;" vertex="1" parent="IbzyNu8WcRmUK6NCDAci-1">
          <mxGeometry x="77" y="86" width="38" height="31" as="geometry" />
        </mxCell>
        <mxCell id="IbzyNu8WcRmUK6NCDAci-17" value="" style="endArrow=classic;html=1;rounded=0;fontSize=12;startSize=8;endSize=8;curved=1;entryX=-0.053;entryY=0.516;entryDx=0;entryDy=0;entryPerimeter=0;" edge="1" parent="IbzyNu8WcRmUK6NCDAci-1">
          <mxGeometry width="50" height="50" relative="1" as="geometry">
            <mxPoint x="-51.99" y="52" as="sourcePoint" />
            <mxPoint x="76.99600000000011" y="51.996000000000095" as="targetPoint" />
          </mxGeometry>
        </mxCell>
        <mxCell id="IbzyNu8WcRmUK6NCDAci-18" value="" style="endArrow=classic;html=1;rounded=0;fontSize=12;startSize=8;endSize=8;curved=1;entryX=-0.053;entryY=0.516;entryDx=0;entryDy=0;entryPerimeter=0;" edge="1" parent="IbzyNu8WcRmUK6NCDAci-1" target="IbzyNu8WcRmUK6NCDAci-9">
          <mxGeometry width="50" height="50" relative="1" as="geometry">
            <mxPoint x="-52" y="4" as="sourcePoint" />
            <mxPoint x="180" y="217" as="targetPoint" />
          </mxGeometry>
        </mxCell>
        <mxCell id="IbzyNu8WcRmUK6NCDAci-20" value="" style="endArrow=classic;html=1;rounded=0;fontSize=12;startSize=8;endSize=8;curved=1;entryX=-0.026;entryY=0.613;entryDx=0;entryDy=0;entryPerimeter=0;" edge="1" parent="IbzyNu8WcRmUK6NCDAci-1">
          <mxGeometry width="50" height="50" relative="1" as="geometry">
            <mxPoint x="-48.01" y="195" as="sourcePoint" />
            <mxPoint x="77.00199999999994" y="196.00299999999993" as="targetPoint" />
          </mxGeometry>
        </mxCell>
        <mxCell id="IbzyNu8WcRmUK6NCDAci-21" value="" style="endArrow=classic;html=1;rounded=0;fontSize=12;startSize=8;endSize=8;curved=1;entryX=-0.026;entryY=0.613;entryDx=0;entryDy=0;entryPerimeter=0;" edge="1" parent="IbzyNu8WcRmUK6NCDAci-1">
          <mxGeometry width="50" height="50" relative="1" as="geometry">
            <mxPoint x="-49.5" y="149" as="sourcePoint" />
            <mxPoint x="75.5" y="150" as="targetPoint" />
          </mxGeometry>
        </mxCell>
        <mxCell id="IbzyNu8WcRmUK6NCDAci-22" value="VCC" style="text;html=1;align=center;verticalAlign=middle;resizable=0;points=[];autosize=1;strokeColor=none;fillColor=none;fontSize=16;" vertex="1" parent="IbzyNu8WcRmUK6NCDAci-1">
          <mxGeometry x="226" y="-78" width="52" height="31" as="geometry" />
        </mxCell>
        <mxCell id="IbzyNu8WcRmUK6NCDAci-23" value="" style="endArrow=classic;html=1;rounded=0;fontSize=12;startSize=8;endSize=8;curved=1;exitX=-0.026;exitY=0.516;exitDx=0;exitDy=0;exitPerimeter=0;" edge="1" parent="IbzyNu8WcRmUK6NCDAci-1">
          <mxGeometry width="50" height="50" relative="1" as="geometry">
            <mxPoint x="77" y="-42" as="sourcePoint" />
            <mxPoint x="-50" y="-42" as="targetPoint" />
          </mxGeometry>
        </mxCell>
        <mxCell id="rDLoQcu5i2bHvvAGMVoe-0" value="SW_1" style="text;html=1;align=center;verticalAlign=middle;resizable=0;points=[];autosize=1;strokeColor=none;fillColor=none;fontSize=16;" vertex="1" parent="IbzyNu8WcRmUK6NCDAci-1">
          <mxGeometry x="-24" y="-23" width="62" height="31" as="geometry" />
        </mxCell>
        <mxCell id="rDLoQcu5i2bHvvAGMVoe-1" value="SW_2, A" style="text;html=1;align=center;verticalAlign=middle;resizable=0;points=[];autosize=1;strokeColor=none;fillColor=none;fontSize=16;" vertex="1" parent="IbzyNu8WcRmUK6NCDAci-1">
          <mxGeometry x="-33" y="23" width="80" height="31" as="geometry" />
        </mxCell>
        <mxCell id="rDLoQcu5i2bHvvAGMVoe-2" value="" style="endArrow=classic;html=1;rounded=0;fontSize=12;startSize=8;endSize=8;curved=1;exitX=-0.026;exitY=0.516;exitDx=0;exitDy=0;exitPerimeter=0;" edge="1" parent="IbzyNu8WcRmUK6NCDAci-1">
          <mxGeometry width="50" height="50" relative="1" as="geometry">
            <mxPoint x="77" y="104" as="sourcePoint" />
            <mxPoint x="-126" y="106" as="targetPoint" />
          </mxGeometry>
        </mxCell>
        <mxCell id="rDLoQcu5i2bHvvAGMVoe-3" value="A" style="text;html=1;align=center;verticalAlign=middle;resizable=0;points=[];autosize=1;strokeColor=none;fillColor=none;fontSize=16;" vertex="1" parent="IbzyNu8WcRmUK6NCDAci-1">
          <mxGeometry x="-6.5" y="-74.5" width="29" height="31" as="geometry" />
        </mxCell>
        <mxCell id="rDLoQcu5i2bHvvAGMVoe-4" value="A" style="text;html=1;align=center;verticalAlign=middle;resizable=0;points=[];autosize=1;strokeColor=none;fillColor=none;fontSize=16;" vertex="1" parent="IbzyNu8WcRmUK6NCDAci-1">
          <mxGeometry x="-10.5" y="123.5" width="29" height="31" as="geometry" />
        </mxCell>
        <mxCell id="rDLoQcu5i2bHvvAGMVoe-5" value="B" style="text;html=1;align=center;verticalAlign=middle;resizable=0;points=[];autosize=1;strokeColor=none;fillColor=none;fontSize=16;" vertex="1" parent="IbzyNu8WcRmUK6NCDAci-1">
          <mxGeometry x="-11.5" y="161.5" width="29" height="31" as="geometry" />
        </mxCell>
        <mxCell id="rDLoQcu5i2bHvvAGMVoe-6" value="C" style="text;html=1;align=center;verticalAlign=middle;resizable=0;points=[];autosize=1;strokeColor=none;fillColor=none;fontSize=16;" vertex="1" parent="IbzyNu8WcRmUK6NCDAci-1">
          <mxGeometry x="-13.5" y="78.5" width="30" height="31" as="geometry" />
        </mxCell>
        <mxCell id="rDLoQcu5i2bHvvAGMVoe-7" value="" style="endArrow=classic;html=1;rounded=0;fontSize=12;startSize=8;endSize=8;curved=1;" edge="1" parent="IbzyNu8WcRmUK6NCDAci-1">
          <mxGeometry width="50" height="50" relative="1" as="geometry">
            <mxPoint x="-106" y="106" as="sourcePoint" />
            <mxPoint x="-104" y="346" as="targetPoint" />
          </mxGeometry>
        </mxCell>
        <mxCell id="rDLoQcu5i2bHvvAGMVoe-8" value="LED" style="text;html=1;align=center;verticalAlign=middle;resizable=0;points=[];autosize=1;strokeColor=none;fillColor=none;fontSize=16;" vertex="1" parent="IbzyNu8WcRmUK6NCDAci-1">
          <mxGeometry x="-107.5" y="273.5" width="49" height="31" as="geometry" />
        </mxCell>
      </root>
    </mxGraphModel>
  </diagram>
  <diagram name="ornand" id="Ri0MQBEN2xfYL2wPpVwd">
    <mxGraphModel dx="996" dy="1187" grid="0" gridSize="10" guides="1" tooltips="1" connect="1" arrows="1" fold="1" page="0" pageScale="1" pageWidth="827" pageHeight="1169" math="0" shadow="0">
      <root>
        <mxCell id="bxMnMhQ5evOywjyk18H2-0" />
        <mxCell id="bxMnMhQ5evOywjyk18H2-1" parent="bxMnMhQ5evOywjyk18H2-0" />
        <mxCell id="bxMnMhQ5evOywjyk18H2-2" value="" style="rounded=0;whiteSpace=wrap;html=1;" vertex="1" parent="bxMnMhQ5evOywjyk18H2-1">
          <mxGeometry x="77" y="-60" width="116" height="314" as="geometry" />
        </mxCell>
        <mxCell id="bxMnMhQ5evOywjyk18H2-3" value="P7" style="text;html=1;align=center;verticalAlign=middle;whiteSpace=wrap;rounded=0;fontSize=16;" vertex="1" parent="bxMnMhQ5evOywjyk18H2-1">
          <mxGeometry x="66" y="222" width="60" height="30" as="geometry" />
        </mxCell>
        <mxCell id="bxMnMhQ5evOywjyk18H2-4" value="" style="endArrow=classic;html=1;rounded=0;fontSize=12;startSize=8;endSize=8;curved=1;entryX=0;entryY=0.5;entryDx=0;entryDy=0;" edge="1" parent="bxMnMhQ5evOywjyk18H2-1" target="bxMnMhQ5evOywjyk18H2-3">
          <mxGeometry width="50" height="50" relative="1" as="geometry">
            <mxPoint x="-44" y="237" as="sourcePoint" />
            <mxPoint x="225" y="175" as="targetPoint" />
          </mxGeometry>
        </mxCell>
        <mxCell id="bxMnMhQ5evOywjyk18H2-5" value="GND" style="text;html=1;align=center;verticalAlign=middle;resizable=0;points=[];autosize=1;strokeColor=none;fillColor=none;fontSize=16;" vertex="1" parent="bxMnMhQ5evOywjyk18H2-1">
          <mxGeometry x="-25.5" y="207.5" width="54" height="31" as="geometry" />
        </mxCell>
        <mxCell id="bxMnMhQ5evOywjyk18H2-6" value="P14" style="text;html=1;align=center;verticalAlign=middle;resizable=0;points=[];autosize=1;strokeColor=none;fillColor=none;fontSize=16;" vertex="1" parent="bxMnMhQ5evOywjyk18H2-1">
          <mxGeometry x="147" y="-60" width="46" height="31" as="geometry" />
        </mxCell>
        <mxCell id="bxMnMhQ5evOywjyk18H2-7" value="" style="endArrow=classic;html=1;rounded=0;fontSize=12;startSize=8;endSize=8;curved=1;entryX=1;entryY=0.484;entryDx=0;entryDy=0;entryPerimeter=0;" edge="1" parent="bxMnMhQ5evOywjyk18H2-1" target="bxMnMhQ5evOywjyk18H2-6">
          <mxGeometry width="50" height="50" relative="1" as="geometry">
            <mxPoint x="302" y="-45" as="sourcePoint" />
            <mxPoint x="189" y="175" as="targetPoint" />
          </mxGeometry>
        </mxCell>
        <mxCell id="bxMnMhQ5evOywjyk18H2-8" value="P1" style="text;html=1;align=center;verticalAlign=middle;resizable=0;points=[];autosize=1;strokeColor=none;fillColor=none;fontSize=16;" vertex="1" parent="bxMnMhQ5evOywjyk18H2-1">
          <mxGeometry x="77" y="-60" width="38" height="31" as="geometry" />
        </mxCell>
        <mxCell id="bxMnMhQ5evOywjyk18H2-9" value="P2" style="text;html=1;align=center;verticalAlign=middle;resizable=0;points=[];autosize=1;strokeColor=none;fillColor=none;fontSize=16;" vertex="1" parent="bxMnMhQ5evOywjyk18H2-1">
          <mxGeometry x="77" y="-12" width="38" height="31" as="geometry" />
        </mxCell>
        <mxCell id="bxMnMhQ5evOywjyk18H2-10" value="P3" style="text;html=1;align=center;verticalAlign=middle;resizable=0;points=[];autosize=1;strokeColor=none;fillColor=none;fontSize=16;" vertex="1" parent="bxMnMhQ5evOywjyk18H2-1">
          <mxGeometry x="77" y="37" width="38" height="31" as="geometry" />
        </mxCell>
        <mxCell id="bxMnMhQ5evOywjyk18H2-11" value="P8" style="text;html=1;align=center;verticalAlign=middle;resizable=0;points=[];autosize=1;strokeColor=none;fillColor=none;fontSize=16;" vertex="1" parent="bxMnMhQ5evOywjyk18H2-1">
          <mxGeometry x="155" y="222" width="38" height="31" as="geometry" />
        </mxCell>
        <mxCell id="bxMnMhQ5evOywjyk18H2-12" value="P9" style="text;html=1;align=center;verticalAlign=middle;resizable=0;points=[];autosize=1;strokeColor=none;fillColor=none;fontSize=16;" vertex="1" parent="bxMnMhQ5evOywjyk18H2-1">
          <mxGeometry x="151" y="180" width="38" height="31" as="geometry" />
        </mxCell>
        <mxCell id="bxMnMhQ5evOywjyk18H2-13" value="P10" style="text;html=1;align=center;verticalAlign=middle;resizable=0;points=[];autosize=1;strokeColor=none;fillColor=none;fontSize=16;" vertex="1" parent="bxMnMhQ5evOywjyk18H2-1">
          <mxGeometry x="147" y="134" width="46" height="31" as="geometry" />
        </mxCell>
        <mxCell id="bxMnMhQ5evOywjyk18H2-14" value="P6" style="text;html=1;align=center;verticalAlign=middle;resizable=0;points=[];autosize=1;strokeColor=none;fillColor=none;fontSize=16;" vertex="1" parent="bxMnMhQ5evOywjyk18H2-1">
          <mxGeometry x="77" y="180" width="38" height="31" as="geometry" />
        </mxCell>
        <mxCell id="bxMnMhQ5evOywjyk18H2-15" value="P5" style="text;html=1;align=center;verticalAlign=middle;resizable=0;points=[];autosize=1;strokeColor=none;fillColor=none;fontSize=16;" vertex="1" parent="bxMnMhQ5evOywjyk18H2-1">
          <mxGeometry x="77" y="134" width="38" height="31" as="geometry" />
        </mxCell>
        <mxCell id="bxMnMhQ5evOywjyk18H2-16" value="P4" style="text;html=1;align=center;verticalAlign=middle;resizable=0;points=[];autosize=1;strokeColor=none;fillColor=none;fontSize=16;" vertex="1" parent="bxMnMhQ5evOywjyk18H2-1">
          <mxGeometry x="77" y="86" width="38" height="31" as="geometry" />
        </mxCell>
        <mxCell id="bxMnMhQ5evOywjyk18H2-17" value="" style="endArrow=classic;html=1;rounded=0;fontSize=12;startSize=8;endSize=8;curved=1;entryX=-0.053;entryY=0.516;entryDx=0;entryDy=0;entryPerimeter=0;" edge="1" parent="bxMnMhQ5evOywjyk18H2-1" target="bxMnMhQ5evOywjyk18H2-8">
          <mxGeometry width="50" height="50" relative="1" as="geometry">
            <mxPoint x="-54" y="-44" as="sourcePoint" />
            <mxPoint x="180" y="217" as="targetPoint" />
          </mxGeometry>
        </mxCell>
        <mxCell id="bxMnMhQ5evOywjyk18H2-18" value="" style="endArrow=classic;html=1;rounded=0;fontSize=12;startSize=8;endSize=8;curved=1;entryX=-0.053;entryY=0.516;entryDx=0;entryDy=0;entryPerimeter=0;" edge="1" parent="bxMnMhQ5evOywjyk18H2-1" target="bxMnMhQ5evOywjyk18H2-9">
          <mxGeometry width="50" height="50" relative="1" as="geometry">
            <mxPoint x="-52" y="4" as="sourcePoint" />
            <mxPoint x="180" y="217" as="targetPoint" />
          </mxGeometry>
        </mxCell>
        <mxCell id="bxMnMhQ5evOywjyk18H2-19" value="" style="endArrow=classic;html=1;rounded=0;fontSize=12;startSize=8;endSize=8;curved=1;exitX=-0.026;exitY=0.516;exitDx=0;exitDy=0;exitPerimeter=0;" edge="1" parent="bxMnMhQ5evOywjyk18H2-1" source="bxMnMhQ5evOywjyk18H2-10">
          <mxGeometry width="50" height="50" relative="1" as="geometry">
            <mxPoint x="130" y="267" as="sourcePoint" />
            <mxPoint x="-51" y="53" as="targetPoint" />
          </mxGeometry>
        </mxCell>
        <mxCell id="bxMnMhQ5evOywjyk18H2-20" value="" style="endArrow=classic;html=1;rounded=0;fontSize=12;startSize=8;endSize=8;curved=1;entryX=-0.026;entryY=0.613;entryDx=0;entryDy=0;entryPerimeter=0;" edge="1" parent="bxMnMhQ5evOywjyk18H2-1" target="bxMnMhQ5evOywjyk18H2-16">
          <mxGeometry width="50" height="50" relative="1" as="geometry">
            <mxPoint x="-49" y="104" as="sourcePoint" />
            <mxPoint x="180" y="217" as="targetPoint" />
          </mxGeometry>
        </mxCell>
        <mxCell id="bxMnMhQ5evOywjyk18H2-21" value="" style="endArrow=classic;html=1;rounded=0;fontSize=12;startSize=8;endSize=8;curved=1;entryX=-0.026;entryY=0.613;entryDx=0;entryDy=0;entryPerimeter=0;" edge="1" parent="bxMnMhQ5evOywjyk18H2-1">
          <mxGeometry width="50" height="50" relative="1" as="geometry">
            <mxPoint x="-49.5" y="149" as="sourcePoint" />
            <mxPoint x="75.5" y="150" as="targetPoint" />
          </mxGeometry>
        </mxCell>
        <mxCell id="bxMnMhQ5evOywjyk18H2-22" value="VCC" style="text;html=1;align=center;verticalAlign=middle;resizable=0;points=[];autosize=1;strokeColor=none;fillColor=none;fontSize=16;" vertex="1" parent="bxMnMhQ5evOywjyk18H2-1">
          <mxGeometry x="226" y="-78" width="52" height="31" as="geometry" />
        </mxCell>
        <mxCell id="bxMnMhQ5evOywjyk18H2-23" value="" style="endArrow=classic;html=1;rounded=0;fontSize=12;startSize=8;endSize=8;curved=1;exitX=-0.026;exitY=0.516;exitDx=0;exitDy=0;exitPerimeter=0;" edge="1" parent="bxMnMhQ5evOywjyk18H2-1">
          <mxGeometry width="50" height="50" relative="1" as="geometry">
            <mxPoint x="77" y="197" as="sourcePoint" />
            <mxPoint x="-50" y="197" as="targetPoint" />
          </mxGeometry>
        </mxCell>
        <mxCell id="Y3ih5Sn6U6ELWfNAiLCh-0" value="SW_1, A" style="text;html=1;align=center;verticalAlign=middle;resizable=0;points=[];autosize=1;strokeColor=none;fillColor=none;fontSize=16;" vertex="1" parent="bxMnMhQ5evOywjyk18H2-1">
          <mxGeometry x="-46.5" y="-81.5" width="80" height="31" as="geometry" />
        </mxCell>
        <mxCell id="Y3ih5Sn6U6ELWfNAiLCh-1" value="A" style="text;html=1;align=center;verticalAlign=middle;resizable=0;points=[];autosize=1;strokeColor=none;fillColor=none;fontSize=16;" vertex="1" parent="bxMnMhQ5evOywjyk18H2-1">
          <mxGeometry x="-13.5" y="-23.5" width="29" height="31" as="geometry" />
        </mxCell>
        <mxCell id="Y3ih5Sn6U6ELWfNAiLCh-2" value="SW_2, B" style="text;html=1;align=center;verticalAlign=middle;resizable=0;points=[];autosize=1;strokeColor=none;fillColor=none;fontSize=16;" vertex="1" parent="bxMnMhQ5evOywjyk18H2-1">
          <mxGeometry x="-35" y="73" width="81" height="31" as="geometry" />
        </mxCell>
        <mxCell id="Y3ih5Sn6U6ELWfNAiLCh-3" value="B" style="text;html=1;align=center;verticalAlign=middle;resizable=0;points=[];autosize=1;strokeColor=none;fillColor=none;fontSize=16;" vertex="1" parent="bxMnMhQ5evOywjyk18H2-1">
          <mxGeometry x="-11.5" y="121" width="29" height="31" as="geometry" />
        </mxCell>
        <mxCell id="Y3ih5Sn6U6ELWfNAiLCh-4" value="C" style="text;html=1;align=center;verticalAlign=middle;resizable=0;points=[];autosize=1;strokeColor=none;fillColor=none;fontSize=16;" vertex="1" parent="bxMnMhQ5evOywjyk18H2-1">
          <mxGeometry x="-11.5" y="23.5" width="30" height="31" as="geometry" />
        </mxCell>
        <mxCell id="Y3ih5Sn6U6ELWfNAiLCh-5" value="D" style="text;html=1;align=center;verticalAlign=middle;resizable=0;points=[];autosize=1;strokeColor=none;fillColor=none;fontSize=16;" vertex="1" parent="bxMnMhQ5evOywjyk18H2-1">
          <mxGeometry x="-10.5" y="171.5" width="30" height="31" as="geometry" />
        </mxCell>
        <mxCell id="Y3ih5Sn6U6ELWfNAiLCh-6" value="P13" style="text;html=1;align=center;verticalAlign=middle;resizable=0;points=[];autosize=1;strokeColor=none;fillColor=none;fontSize=16;" vertex="1" parent="bxMnMhQ5evOywjyk18H2-1">
          <mxGeometry x="147" y="-12" width="46" height="31" as="geometry" />
        </mxCell>
        <mxCell id="Y3ih5Sn6U6ELWfNAiLCh-7" value="P12" style="text;html=1;align=center;verticalAlign=middle;resizable=0;points=[];autosize=1;strokeColor=none;fillColor=none;fontSize=16;" vertex="1" parent="bxMnMhQ5evOywjyk18H2-1">
          <mxGeometry x="147" y="40" width="46" height="31" as="geometry" />
        </mxCell>
        <mxCell id="Y3ih5Sn6U6ELWfNAiLCh-8" value="P11" style="text;html=1;align=center;verticalAlign=middle;resizable=0;points=[];autosize=1;strokeColor=none;fillColor=none;fontSize=16;" vertex="1" parent="bxMnMhQ5evOywjyk18H2-1">
          <mxGeometry x="151" y="90" width="45" height="31" as="geometry" />
        </mxCell>
        <mxCell id="Y3ih5Sn6U6ELWfNAiLCh-9" value="" style="endArrow=classic;html=1;rounded=0;fontSize=12;startSize=8;endSize=8;curved=1;exitX=-0.026;exitY=0.516;exitDx=0;exitDy=0;exitPerimeter=0;" edge="1" parent="bxMnMhQ5evOywjyk18H2-1">
          <mxGeometry width="50" height="50" relative="1" as="geometry">
            <mxPoint x="320" y="6.5" as="sourcePoint" />
            <mxPoint x="193" y="6.5" as="targetPoint" />
          </mxGeometry>
        </mxCell>
        <mxCell id="Y3ih5Sn6U6ELWfNAiLCh-10" value="" style="endArrow=classic;html=1;rounded=0;fontSize=12;startSize=8;endSize=8;curved=1;exitX=-0.026;exitY=0.516;exitDx=0;exitDy=0;exitPerimeter=0;" edge="1" parent="bxMnMhQ5evOywjyk18H2-1">
          <mxGeometry width="50" height="50" relative="1" as="geometry">
            <mxPoint x="320" y="54.5" as="sourcePoint" />
            <mxPoint x="193" y="54.5" as="targetPoint" />
          </mxGeometry>
        </mxCell>
        <mxCell id="Y3ih5Sn6U6ELWfNAiLCh-11" value="" style="endArrow=classic;html=1;rounded=0;fontSize=12;startSize=8;endSize=8;curved=1;entryX=-0.053;entryY=0.516;entryDx=0;entryDy=0;entryPerimeter=0;" edge="1" parent="bxMnMhQ5evOywjyk18H2-1">
          <mxGeometry width="50" height="50" relative="1" as="geometry">
            <mxPoint x="193" y="107" as="sourcePoint" />
            <mxPoint x="320" y="107" as="targetPoint" />
          </mxGeometry>
        </mxCell>
        <mxCell id="Y3ih5Sn6U6ELWfNAiLCh-12" value="" style="endArrow=classic;html=1;rounded=0;fontSize=12;startSize=8;endSize=8;curved=1;" edge="1" parent="bxMnMhQ5evOywjyk18H2-1">
          <mxGeometry width="50" height="50" relative="1" as="geometry">
            <mxPoint x="294" y="109" as="sourcePoint" />
            <mxPoint x="296" y="302" as="targetPoint" />
          </mxGeometry>
        </mxCell>
        <mxCell id="Y3ih5Sn6U6ELWfNAiLCh-13" value="LED" style="text;html=1;align=center;verticalAlign=middle;resizable=0;points=[];autosize=1;strokeColor=none;fillColor=none;fontSize=16;" vertex="1" parent="bxMnMhQ5evOywjyk18H2-1">
          <mxGeometry x="296" y="185" width="49" height="31" as="geometry" />
        </mxCell>
        <mxCell id="Y3ih5Sn6U6ELWfNAiLCh-14" value="C" style="text;html=1;align=center;verticalAlign=middle;resizable=0;points=[];autosize=1;strokeColor=none;fillColor=none;fontSize=16;" vertex="1" parent="bxMnMhQ5evOywjyk18H2-1">
          <mxGeometry x="233.5" y="-28.5" width="30" height="31" as="geometry" />
        </mxCell>
        <mxCell id="Y3ih5Sn6U6ELWfNAiLCh-15" value="D" style="text;html=1;align=center;verticalAlign=middle;resizable=0;points=[];autosize=1;strokeColor=none;fillColor=none;fontSize=16;" vertex="1" parent="bxMnMhQ5evOywjyk18H2-1">
          <mxGeometry x="231.5" y="25.5" width="30" height="31" as="geometry" />
        </mxCell>
      </root>
    </mxGraphModel>
  </diagram>
</mxfile>
